<?xml version="1.0" encoding="UTF-8" standalone="no"?>
<svg
   width="14"
   height="14"
   version="1.1"
   id="svg1"
   xmlns="http://www.w3.org/2000/svg"
   xmlns:svg="http://www.w3.org/2000/svg">
  <defs
     id="defs1">
    <clipPath
       clipPathUnits="userSpaceOnUse"
       id="clipPath9">
      <circle
         style="display:none;fill:#ffffff;fill-opacity:1;stroke-width:1.00157;stroke-linecap:round;stroke-linejoin:round"
         id="circle9"
         cx="8"
         cy="8"
         r="7.5"
         d="M 15.5,8 A 7.5,7.5 0 0 1 8,15.5 7.5,7.5 0 0 1 0.5,8 7.5,7.5 0 0 1 8,0.5 7.5,7.5 0 0 1 15.5,8 Z" />
      <path
         id="lpe_path-effect9"
         style="fill:#ffffff;fill-opacity:1;stroke-width:1.00157;stroke-linecap:round;stroke-linejoin:round"
         class="powerclip"
         d="M -4,-4 H 20 V 20 H -4 Z M 15.5,8 A 7.5,7.5 0 0 0 8,0.5 7.5,7.5 0 0 0 0.5,8 7.5,7.5 0 0 0 8,15.5 7.5,7.5 0 0 0 15.5,8 Z" />
    </clipPath>
  </defs>
  <path
     fill="#8eef97"
     d="M 3,1 A 2,2 0 0 0 1,3 v 10 a 2,2 0 0 0 2,2 h 10 a 2,2 0 0 0 2,-2 V 3 A 2,2 0 0 0 13,1 Z M 3,3 H 13 V 13 H 3 Z"
     id="path1"
     clip-path="url(#clipPath9)"
     transform="translate(-1,-1)" />
  <circle
     style="fill:none;fill-opacity:0.511079;stroke:#8eef97;stroke-width:2;stroke-linecap:round;stroke-linejoin:round;stroke-dasharray:none;stroke-opacity:1"
     id="path2"
     cx="7"
     cy="7"
     r="5" />
</svg>
