<?xml version="1.0" encoding="UTF-8" standalone="no"?>
<svg
   width="16"
   height="16"
   version="1.1"
   id="svg1"
   sodipodi:docname="view_switcher.svg"
   inkscape:version="1.4.3 (0d15f75042, 2025-12-25)"
   xml:space="preserve"
   xmlns:inkscape="http://www.inkscape.org/namespaces/inkscape"
   xmlns:sodipodi="http://sodipodi.sourceforge.net/DTD/sodipodi-0.dtd"
   xmlns="http://www.w3.org/2000/svg"
   xmlns:svg="http://www.w3.org/2000/svg"><defs
     id="defs1"><mask
       maskUnits="userSpaceOnUse"
       id="mask4"><rect
         style="fill:#ffffff;fill-opacity:1;stroke:none;stroke-width:0.938797;stroke-linecap:round;stroke-linejoin:round"
         id="rect5"
         width="8.9765263"
         height="9.8967142"
         x="3.5117371"
         y="3.0516429" /></mask></defs><sodipodi:namedview
     id="namedview1"
     pagecolor="#505050"
     bordercolor="#eeeeee"
     borderopacity="1"
     inkscape:showpageshadow="0"
     inkscape:pageopacity="0"
     inkscape:pagecheckerboard="0"
     inkscape:deskcolor="#d1d1d1"
     inkscape:zoom="53.25"
     inkscape:cx="7.9906103"
     inkscape:cy="8.9201878"
     inkscape:window-width="1920"
     inkscape:window-height="1056"
     inkscape:window-x="0"
     inkscape:window-y="0"
     inkscape:window-maximized="1"
     inkscape:current-layer="g3" /><path
     fill="#8eef97"
     d="M 3,1 A 2,2 0 0 0 1,3 v 10 a 2,2 0 0 0 2,2 h 10 a 2,2 0 0 0 2,-2 V 3 A 2,2 0 0 0 13,1 Z M 3,3 H 13 V 13 H 3 Z"
     id="path1" /><g
     id="g3"
     mask="url(#mask4)"><path
       fill="#e0e0e0"
       d="m 8,3.9014085 c -2.1107803,0 -4.6437167,0.8197183 -5.8679692,3.852676 a 0.84431212,0.81971831 0 0 0 0,0.491831 C 3.3562833,11.278873 5.8892197,12.098592 8,12.098592 c 2.11078,0 4.643717,-0.819719 5.867969,-3.8526765 a 0.84431212,0.81971831 0 0 0 0,-0.491831 C 12.643717,4.7211268 10.11078,3.9014085 8,3.9014085 Z M 8,4.9260563 A 3.1661706,3.0739439 0 1 1 8,11.073944 3.1661706,3.0739439 0 0 1 8,4.9260563 Z M 8,6.3605634 A 1.6886242,1.6394366 0 1 0 8,9.6394366 1.6886242,1.6394366 0 0 0 8,6.3605634 Z"
       id="path1-6"
       style="stroke-width:0.831924;fill:#8eef97;fill-opacity:1" /></g></svg>
